<?xml version="1.0" standalone="no"?>
<svg xmlns="http://www.w3.org/2000/svg" width="288.3440438793318" height="73.10404387933183" viewBox="0 0 288.3440438793318 73.10404387933183"><g fill="#DC7364" color="#DC7364" transform="translate(0 0) scale(0.7310405)"><svg width="100.0" height="100.0" x="0.0" y="0.0" viewBox="0 0 100 100"><path d="M94.071,15.294c-2.313-5.2-8.404-7.539-13.603-5.226c-5.2,2.313-7.539,8.404-5.226,13.603  c0.227,0.509,0.499,0.983,0.794,1.435L48.491,49.476c-1.162-1.009-2.523-1.793-4.023-2.27l1.12-6.317  c1.204-0.068,2.404-0.467,3.451-1.229c2.902-2.112,3.542-6.178,1.43-9.08c-2.112-2.902-6.178-3.542-9.08-1.43  c-2.902,2.112-3.542,6.178-1.43,9.08c0.71,0.975,1.642,1.688,2.675,2.134l-1.123,6.331c-0.166-0.007-0.33-0.025-0.498-0.025  c-2.266,0-4.374,0.671-6.152,1.813L17.081,27.421c0.826-1.012,1.375-2.268,1.513-3.665c0.373-3.777-2.387-7.141-6.164-7.514  c-3.777-0.373-7.141,2.387-7.514,6.164c-0.373,3.777,2.387,7.141,6.164,7.514c1.298,0.128,2.544-0.121,3.639-0.647l17.854,21.148  c-1.847,2.03-2.984,4.718-2.984,7.672c0,0.317,0.022,0.628,0.047,0.938l-11.701,2.543c-0.681-1.295-1.861-2.325-3.374-2.775  c-2.977-0.884-6.107,0.813-6.991,3.79c-0.884,2.977,0.813,6.107,3.79,6.991c2.977,0.884,6.107-0.813,6.991-3.79  c0.127-0.428,0.195-0.858,0.219-1.285l11.707-2.545c0.93,2.571,2.749,4.714,5.094,6.053L30.592,79.8  c-1.879-0.362-3.893-0.042-5.634,1.068c-3.611,2.302-4.673,7.095-2.371,10.706c2.302,3.611,7.095,4.673,10.706,2.371  c3.611-2.302,4.673-7.095,2.371-10.706c-0.61-0.958-1.399-1.73-2.291-2.314l4.779-11.784c0.917,0.238,1.872,0.377,2.862,0.377  c3.53,0,6.69-1.61,8.787-4.133l11.525,7.239c-1.075,2.427-1.234,5.262-0.218,7.94c2.048,5.399,8.085,8.116,13.484,6.068  c5.399-2.048,8.116-8.085,6.068-13.484c-2.048-5.399-8.085-8.116-13.484-6.068c-1.711,0.649-3.149,1.7-4.255,3.002l-11.528-7.241  c0.665-1.448,1.046-3.053,1.046-4.748c0-2.361-0.72-4.556-1.951-6.379l27.535-24.36c2.923,2.459,7.098,3.2,10.822,1.543  C94.045,26.584,96.384,20.494,94.071,15.294z M41.014,66.519c-4.646,0-8.425-3.779-8.425-8.425s3.779-8.424,8.425-8.424  s8.425,3.779,8.425,8.424S45.659,66.519,41.014,66.519z"></path></svg></g><path fill="#0C3457" fill-rule="nonzero" d="M16.16 17.68L16.16 17.68L21.32 17.68Q21.32 23.12 18.60 26.04Q15.88 28.96 10.92 28.96L10.92 28.96Q0 28.96 0 16.12L0 16.12L0 13.72Q0 3.60 5.60 1.04L5.60 1.04Q7.80 0 10.92 0L10.92 0Q15.48 0 18.34 2.50Q21.20 5 21.20 9.72L21.20 9.72L16.00 9.72Q15.56 7.36 14.44 6.16Q13.32 4.96 10.92 4.96L10.92 4.96Q8.12 4.96 6.76 6.72L6.76 6.72Q5.80 7.96 5.64 10.96L5.64 10.96Q5.56 11.92 5.56 13.56L5.56 13.56L5.56 16.04Q5.56 20.64 6.84 22.32L6.84 22.32Q8.16 24 10.94 24Q13.72 24 14.78 22.46Q15.84 20.92 16.16 17.68ZM43.60 23.76L43.60 28.72L35.12 28.72Q30.32 28.72 28.18 26.86Q26.04 25 26.04 20.80L26.04 20.80L26.04 0.24L31.60 0.24L31.60 20.80Q31.60 22.48 32.36 23.12Q33.12 23.76 35.12 23.76L35.12 23.76L43.60 23.76ZM60.52 2.64L69.64 28.72L63.84 28.72L62.24 23.80L52.68 23.80L51.12 28.72L45.32 28.72L54.44 2.64Q55.04 1.28 55.78 0.76Q56.52 0.24 57.60 0.24Q58.68 0.24 59.34 0.72Q60 1.20 60.52 2.64L60.52 2.64ZM54.08 19.12L60.96 19.12L57.60 7.84L54.08 19.12ZM88.96 0.24L94.48 0.24L94.48 18.96Q94.48 23.60 91.34 26.28Q88.20 28.96 83.60 28.96Q79 28.96 75.86 26.28Q72.72 23.60 72.72 18.96L72.72 18.96L72.72 0.24L78.28 0.24L78.28 18.76Q78.28 21.40 79.74 22.70Q81.20 24 83.60 24Q86 24 87.48 22.70Q88.96 21.40 88.96 18.76L88.96 18.76L88.96 0.24ZM121.76 14.36L121.76 14.36L121.80 17.44Q121.64 20.36 121.08 22.36Q120.52 24.36 118.88 26L118.88 26Q116.16 28.72 110.96 28.72L110.96 28.72Q104.84 28.72 102.56 27.10Q100.28 25.48 100.28 21.24L100.28 21.24L100.28 0.24L111.36 0.24Q116.16 0.24 118.88 2.96L118.88 2.96Q121.08 5.16 121.48 8.32L121.48 8.32Q121.76 10.56 121.76 14.36ZM115 22Q115.76 21.08 115.98 19.46Q116.20 17.84 116.20 14.40Q116.20 10.96 115.98 9.42Q115.76 7.88 115 6.96L115 6.96Q113.56 5.20 110.84 5.20L110.84 5.20L105.84 5.20L105.84 20.96Q105.84 22.56 106.92 23.16Q108 23.76 110.78 23.76Q113.56 23.76 115 22L115 22ZM132.20 0.24L132.20 28.72L126.64 28.72L126.64 0.24L132.20 0.24ZM151.32 2.64L160.44 28.72L154.64 28.72L153.04 23.80L143.48 23.80L141.92 28.72L136.12 28.72L145.24 2.64Q145.84 1.28 146.58 0.76Q147.32 0.24 148.40 0.24Q149.48 0.24 150.14 0.72Q150.80 1.20 151.32 2.64L151.32 2.64ZM144.88 19.12L151.76 19.12L148.40 7.84L144.88 19.12Z" transform="translate(88.105 0) scale(1.249)"></path><path fill="#0C3457" fill-rule="nonzero" d="M16.16 17.68L16.16 17.68L21.32 17.68Q21.32 23.12 18.60 26.04Q15.88 28.96 10.92 28.96L10.92 28.96Q0 28.96 0 16.12L0 16.12L0 13.72Q0 3.60 5.60 1.04L5.60 1.04Q7.80 0 10.92 0L10.92 0Q15.48 0 18.34 2.50Q21.20 5 21.20 9.72L21.20 9.72L16.00 9.72Q15.56 7.36 14.44 6.16Q13.32 4.96 10.92 4.96L10.92 4.96Q8.12 4.96 6.76 6.72L6.76 6.72Q5.80 7.96 5.64 10.96L5.64 10.96Q5.56 11.92 5.56 13.56L5.56 13.56L5.56 16.04Q5.56 20.64 6.84 22.32L6.84 22.32Q8.16 24 10.94 24Q13.72 24 14.78 22.46Q15.84 20.92 16.16 17.68ZM38.52 2.64L47.64 28.72L41.84 28.72L40.24 23.80L30.68 23.80L29.12 28.72L23.32 28.72L32.44 2.64Q33.04 1.28 33.78 0.76Q34.52 0.24 35.60 0.24Q36.68 0.24 37.34 0.72Q38 1.20 38.52 2.64L38.52 2.64ZM32.08 19.12L38.96 19.12L35.60 7.84L32.08 19.12ZM65.56 0.24L71.36 0.24L62.40 27.12Q61.68 28.96 59.84 28.96L59.84 28.96Q57.92 28.96 57.20 27.12L57.20 27.12L48.36 0.24L54.12 0.24L59.84 18.80L65.56 0.24ZM87.28 2.64L96.40 28.72L90.60 28.72L89 23.80L79.44 23.80L77.88 28.72L72.08 28.72L81.20 2.64Q81.80 1.28 82.54 0.76Q83.28 0.24 84.36 0.24Q85.44 0.24 86.10 0.72Q86.76 1.20 87.28 2.64L87.28 2.64ZM80.84 19.12L87.72 19.12L84.36 7.84L80.84 19.12ZM117.88 23.76L117.88 28.72L109.40 28.72Q104.60 28.72 102.46 26.86Q100.32 25 100.32 20.80L100.32 20.80L100.32 0.24L105.88 0.24L105.88 20.80Q105.88 22.48 106.64 23.12Q107.40 23.76 109.40 23.76L109.40 23.76L117.88 23.76ZM139.88 23.76L139.88 28.72L131.40 28.72Q126.60 28.72 124.46 26.86Q122.32 25 122.32 20.80L122.32 20.80L122.32 0.24L127.88 0.24L127.88 20.80Q127.88 22.48 128.64 23.12Q129.40 23.76 131.40 23.76L131.40 23.76L139.88 23.76ZM163.08 23.76L163.08 28.72L153 28.72Q148.20 28.72 146.26 27.06Q144.32 25.40 144.32 21.20L144.32 21.20L144.32 0.24L163.08 0.24L163.08 5.20L149.88 5.20L149.88 11.88L159.12 11.88L158.72 16.84L149.88 16.84L149.88 20.80Q149.88 22.48 150.64 23.12Q151.40 23.76 153.40 23.76L153.40 23.76L163.08 23.76ZM183.72 17.24L190.08 28.72L183.64 28.72L178.08 18.16L174.08 18.16L174.08 28.72L168.52 28.72L168.52 6.36Q168.52 3.16 170 1.70Q171.48 0.24 174.96 0.24L174.96 0.24L179.68 0.24Q183.92 0.24 186.42 2.82Q188.92 5.40 188.92 9.36L188.92 9.36Q188.92 12.24 187.42 14.34Q185.92 16.44 183.72 17.24L183.72 17.24ZM179.32 13.52Q181.08 13.52 182.22 12.30Q183.36 11.08 183.36 9.26Q183.36 7.44 182.26 6.32Q181.16 5.20 179.32 5.20L179.32 5.20L176.56 5.20Q174.08 5.20 174.08 7.72L174.08 7.72L174.08 13.52L179.32 13.52ZM200.24 0.24L200.24 28.72L194.68 28.72L194.68 0.24L200.24 0.24Z" transform="translate(88.105 44.145) scale(1)"></path></svg>